<svg xmlns="http://www.w3.org/2000/svg" width="760" height="430" viewBox="0 0 760 430">
  <defs>
    <linearGradient id="panel" x1="0" x2="1">
      <stop offset="0" stop-color="#07140d" stop-opacity=".94"/>
      <stop offset=".62" stop-color="#15321f" stop-opacity=".86"/>
      <stop offset="1" stop-color="#030604" stop-opacity=".94"/>
    </linearGradient>
    <linearGradient id="gold" x1="0" x2="1">
      <stop offset="0" stop-color="#fff0aa"/>
      <stop offset=".5" stop-color="#9c722b"/>
      <stop offset="1" stop-color="#fff0aa"/>
    </linearGradient>
    <filter id="shadow" x="-10%" y="-25%" width="120%" height="160%">
      <feDropShadow dx="0" dy="14" stdDeviation="17" flood-color="#000" flood-opacity=".62"/>
    </filter>
  </defs>
  <g filter="url(#shadow)">
    <rect x="20" y="20" width="720" height="390" rx="20" fill="url(#panel)" stroke="url(#gold)" stroke-width="3"/>
    <text x="48" y="64" font-family="Georgia, serif" font-size="28" font-weight="900" fill="#fff8cf">COLEADERO</text>
    <text x="48" y="91" font-family="Arial, sans-serif" font-size="15" font-weight="900" fill="#d8c17c">RESULTADOS AL MOMENTO</text>
    <path d="M48 115h650" stroke="#f7e8ad" stroke-opacity=".25" stroke-width="2"/>
    <g font-family="Arial, sans-serif" font-weight="900">
      <text x="52" y="154" font-size="14" fill="#d8c17c">COLEADOR</text>
      <text x="380" y="154" font-size="14" fill="#d8c17c">P1</text>
      <text x="480" y="154" font-size="14" fill="#d8c17c">P2</text>
      <text x="580" y="154" font-size="14" fill="#d8c17c">P3</text>
      <text x="665" y="154" font-size="14" fill="#d8c17c">TOTAL</text>
    </g>
    <path d="M48 175h650M48 245h650M48 315h650" stroke="#b8c2bb" stroke-opacity=".22" stroke-width="2"/>
    <rect x="354" y="189" width="62" height="42" rx="10" fill="#111a13" stroke="#d8b960" stroke-opacity=".35"/>
    <rect x="454" y="189" width="62" height="42" rx="10" fill="#111a13" stroke="#d8b960" stroke-opacity=".35"/>
    <rect x="554" y="189" width="62" height="42" rx="10" fill="#111a13" stroke="#d8b960" stroke-opacity=".35"/>
    <rect x="650" y="189" width="62" height="42" rx="10" fill="#b68b3d"/>
    <rect x="354" y="259" width="62" height="42" rx="10" fill="#111a13" stroke="#d8b960" stroke-opacity=".35"/>
    <rect x="454" y="259" width="62" height="42" rx="10" fill="#111a13" stroke="#d8b960" stroke-opacity=".35"/>
    <rect x="554" y="259" width="62" height="42" rx="10" fill="#111a13" stroke="#d8b960" stroke-opacity=".35"/>
    <rect x="650" y="259" width="62" height="42" rx="10" fill="#b68b3d"/>
    <rect x="354" y="329" width="62" height="42" rx="10" fill="#111a13" stroke="#d8b960" stroke-opacity=".35"/>
    <rect x="454" y="329" width="62" height="42" rx="10" fill="#111a13" stroke="#d8b960" stroke-opacity=".35"/>
    <rect x="554" y="329" width="62" height="42" rx="10" fill="#111a13" stroke="#d8b960" stroke-opacity=".35"/>
    <rect x="650" y="329" width="62" height="42" rx="10" fill="#b68b3d"/>
  </g>
</svg>
